<?xml version="1.0" encoding="utf-8"?>
<!-- Generator: Adobe Illustrator 16.0.0, SVG Export Plug-In . SVG Version: 6.00 Build 0)  -->
<!DOCTYPE svg PUBLIC "-//W3C//DTD SVG 1.1//EN" "http://www.w3.org/Graphics/SVG/1.1/DTD/svg11.dtd">
<svg version="1.1" id="Ebene_1" xmlns="http://www.w3.org/2000/svg" xmlns:xlink="http://www.w3.org/1999/xlink" x="0px" y="0px"
	 width="283.85px" height="151.867px" viewBox="0 0 283.85 151.867" enable-background="new 0 0 283.85 151.867"
	 xml:space="preserve">
<path fill-rule="evenodd" clip-rule="evenodd" fill="#FFFFFF" d="M281.549,84.049c-0.09-1.286-0.64-5.473-3.875-8.288
	c-2.811-2.451-10.807-5.979-15.592-8.092c-2.066-0.912-3.576-1.571-4.173-1.922c-0.229-0.126-0.674-0.374-0.664-0.863
	c0.003-0.16,0.005-0.241,0.927-2.352l0.079-0.177c0.708-1.615,1.347-2.939,1.89-4.115c2.964-6.198,2.964-6.198-5.925-10.761
	l-0.378-0.193l0.029-0.41c0.055-0.492,0.51-1.263,1.597-2.745l0.302-0.403l0.408,0.116c0.537,0.157,1.066,0.323,1.555,0.481
	c2.694,0.865,4.179,1.346,6.314-1.579c1.261-1.707,1.34-4.397,0.861-6.308c-0.44-1.71-0.708-1.932-2.023-3.027l-0.336-0.281
	c-0.244-0.193-0.704-0.54-0.658-1.063c0.046-0.854,0.332-1.646,0.595-2.418c0.341-1.004,0.669-1.947,0.579-3.039l-0.025-0.375
	c-0.222-2.637-0.722-8.802-3.551-9.531l-0.273-0.064l-0.397-0.854l0.13-0.263c1.426-3.107-0.366-7.116-2.921-9.208
	c-1.829-1.476-3.708-1.766-5.039-0.778l-0.645,0.48l-0.279-0.744c-0.458-1.147-1.02-1.835-1.676-2.042
	c-0.673-0.22-1.566,0.046-2.643,0.774l-0.542,0.351l-0.678-1.143c-1.471-1.966-2.459-2.786-4.693-2.653
	c-3.294,0.206-7.503,0.646-10.68,2.22L228.81,2.95l-0.307-0.236c-2.639-2.042-6.462-1.711-11.353,0.986
	c-1.938,1.064-2.289,2.843-2.529,4.02c-0.144,0.67-0.237,1.159-0.658,1.388l-0.335,0.175c-2.79,1.476-5.688,3.008-5.638,6.443
	c0.016,1.647-0.706,2.163-1.345,2.63c-0.42,0.301-0.774,0.572-1.051,1.228c-0.054,0.169-0.092,0.817-0.059,1.285
	c-0.004,1.303,0.201,2.354,0.436,3.463c0.14,0.648,0.265,1.323,0.378,2.058c0.109,0.86-0.389,1.436-0.84,1.939
	c-0.893,1.036-1.992,2.312,0.403,7.15l0.158,0.309l-0.188,0.303c-1.544,2.302-2.347,6.177-1.023,8.662
	c0.775,1.432,2.146,2.16,4.058,2.16c1.57,0,2.944-0.904,3.846-1.506c0.576-0.378,0.941-0.615,1.298-0.588l0.32,0.013l0.167,0.274
	c0.46,0.716,0.979,1.423,1.506,2.094l0.127,0.19l-0.013,0.225c-0.03,0.508-0.499,0.87-2.105,2.037
	c-1.957,1.445-5.229,3.852-5.166,5.538c0.02,0.684,1.46,3.068,2.511,4.814c1.316,2.2,2.082,3.523,2.209,4.245l0.262,0.725
	l-0.479,0.248c-3.075,1.615-6.035,2.917-8.903,4.166c-8.95,3.921-15.41,6.76-15.554,14.662H281.549z"/>
<path fill-rule="evenodd" clip-rule="evenodd" fill="#1452A2" d="M283.85,137.636c-1.074,0.086-2.128,0.172-3.181,0.172
	c-0.958,0-1.94-0.086-2.899-0.172v0.301l1.544,0.576c0.677,0.256,0.864,0.429,0.912,1.027c0.07,1.048,0.093,2.097,0.093,3.125v5.178
	l-6.665-8.091c-0.562-0.684-1.053-1.368-1.497-2.116c-0.7,0.086-1.402,0.172-2.104,0.172c-0.749,0-1.497-0.086-2.245-0.172v0.301
	c0.748,0.212,1.473,0.447,2.198,0.748l0.305,0.427v4.237c0,2.738-0.164,5.928-0.258,6.614c-0.024,0.192-0.233,0.384-0.561,0.49
	l-1.777,0.622v0.298c1.004-0.086,1.987-0.171,2.992-0.171c1.029,0,2.083,0.085,3.11,0.171v-0.298l-1.543-0.45
	c-0.679-0.193-0.843-0.362-0.912-0.705c-0.07-0.407-0.117-4.624-0.117-7.449v-2.396l4.796,5.842
	c1.589,1.969,3.202,3.915,4.699,5.949h0.562c-0.048-2.439-0.048-4.902-0.048-5.779c0-1.241,0.188-5.027,0.259-6.762
	c0.023-0.384,0.257-0.6,0.771-0.77l1.567-0.515V137.636z M256.904,151.374c1.051-0.086,2.408-0.171,3.576-0.171
	c1.03,0,2.386,0.085,3.485,0.171v-0.298l-1.802-0.558c-0.583-0.192-0.653-0.278-0.676-1.925c-0.025-1.286-0.071-2.592-0.071-3.876
	c0-1.282,0.046-2.59,0.071-3.872c0.046-2.011,0.069-2.16,0.514-2.313l1.964-0.596v-0.301c-1.168,0.086-2.315,0.172-3.485,0.172
	c-1.31,0-2.455-0.086-3.576-0.172v0.301l1.964,0.596c0.444,0.152,0.468,0.302,0.514,2.313c0.025,1.282,0.07,2.59,0.07,3.872
	c0,1.284-0.045,2.59-0.07,3.876c-0.023,1.646-0.094,1.732-0.679,1.925l-1.799,0.558V151.374z M248.528,145.98h-5.261l2.689-5.67
	L248.528,145.98z M238.263,151.374c0.865-0.086,1.729-0.171,2.595-0.171c0.937,0,1.848,0.085,2.761,0.171v-0.298l-2.012-0.666
	c0.328-1.197,0.702-2.462,1.332-3.551c0.983-0.021,1.941-0.043,2.925-0.043c0.982,0,1.988,0.021,2.969,0.043
	c0.329,0.641,1.077,2.654,1.358,3.551c-0.702,0.259-1.709,0.535-2.292,0.666v0.298c1.052-0.086,2.08-0.171,3.133-0.171
	c1.239,0,2.455,0.085,3.695,0.171v-0.298l-1.965-0.622c-1.987-4.343-4.092-8.795-5.963-13.248h-0.515
	c-1.685,3.854-4.21,8.774-6.244,13.163c-0.563,0.278-2.63,0.514-3.191,0.707L238.263,151.374z M214.873,151.374
	c0.912-0.086,1.824-0.171,2.735-0.171c1.006,0,1.989,0.085,2.994,0.171v-0.298l-1.217-0.386c-0.655-0.193-0.866-0.407-0.866-0.898
	c0-1.435,0.444-7.469,0.749-10.296c1.941,3.916,3.905,7.812,5.567,11.878h0.303c1.755-3.916,3.532-7.598,5.59-11.641
	c0.21,1.049,1.309,9.18,1.309,10.25c0,0.192-0.233,0.492-1.027,0.729l-1.147,0.364v0.298c1.076-0.086,2.152-0.171,3.252-0.171
	c1.098,0,2.198,0.085,3.273,0.171v-0.298l-1.264-0.323c-0.56-0.148-0.841-0.299-0.957-0.961c-0.258-1.351-1.287-9.16-1.287-10.639
	c0-0.384,0.186-0.511,1.146-0.854l1.029-0.362v-0.301c-1.566,0.086-3.11,0.15-4.49,0.172c-1.543,3.359-3.156,6.719-5.005,9.992
	c-1.638-3.316-3.25-6.633-4.7-9.992c-1.403-0.021-2.97-0.086-4.467-0.172v0.301l1.333,0.447c0.444,0.148,0.608,0.385,0.608,0.769
	c0,1.588-0.608,7.085-1.193,10.425c-0.116,0.705-0.211,0.813-1.028,1.091l-1.239,0.407V151.374z M182.129,151.374
	c0.912-0.086,1.824-0.171,2.736-0.171c1.006,0,1.987,0.085,2.993,0.171v-0.298l-1.216-0.386c-0.656-0.193-0.867-0.407-0.867-0.898
	c0-1.435,0.446-7.469,0.748-10.296c1.943,3.916,3.907,7.812,5.568,11.878h0.304c1.755-3.916,3.532-7.598,5.59-11.641
	c0.21,1.049,1.309,9.18,1.309,10.25c0,0.192-0.234,0.492-1.029,0.729l-1.145,0.364v0.298c1.075-0.086,2.151-0.171,3.25-0.171
	s2.198,0.085,3.273,0.171v-0.298l-1.263-0.323c-0.56-0.148-0.842-0.299-0.959-0.961c-0.256-1.351-1.286-9.16-1.286-10.639
	c0-0.384,0.187-0.511,1.146-0.854l1.028-0.362v-0.301c-1.565,0.086-3.109,0.15-4.49,0.172c-1.542,3.359-3.155,6.719-5.003,9.992
	c-1.639-3.316-3.251-6.633-4.702-9.992c-1.403-0.021-2.969-0.086-4.468-0.172v0.301l1.334,0.447
	c0.445,0.148,0.608,0.385,0.608,0.769c0,1.588-0.608,7.085-1.193,10.425c-0.116,0.705-0.21,0.813-1.027,1.091l-1.24,0.407V151.374z
	 M173.829,145.98h-5.264l2.692-5.67L173.829,145.98z M163.562,151.374c0.864-0.086,1.73-0.171,2.597-0.171
	c0.936,0,1.848,0.085,2.761,0.171v-0.298l-2.013-0.666c0.328-1.197,0.702-2.462,1.333-3.551c0.982-0.021,1.94-0.043,2.924-0.043
	c0.982,0,1.986,0.021,2.97,0.043c0.327,0.641,1.075,2.654,1.357,3.551c-0.703,0.259-1.708,0.535-2.293,0.666v0.298
	c1.054-0.086,2.081-0.171,3.135-0.171c1.238,0,2.455,0.085,3.695,0.171v-0.298l-1.965-0.622c-1.989-4.343-4.094-8.795-5.964-13.248
	h-0.516c-1.684,3.854-4.208,8.774-6.243,13.163c-0.563,0.278-1.217,0.514-1.778,0.707V151.374z M140.006,141.272h0.328l0.703-1.71
	c0.327-0.728,0.56-0.813,4.068-0.813v9.329c0,1.068-0.047,1.627-0.187,1.925c-0.117,0.279-0.633,0.536-2.41,1.072v0.298
	c1.1-0.086,2.129-0.171,3.577-0.171c1.451,0,2.48,0.085,3.578,0.171v-0.298c-1.776-0.536-2.269-0.793-2.408-1.072
	c-0.141-0.298-0.186-0.856-0.186-1.925v-9.329c3.505,0,3.74,0.085,4.066,0.813l0.701,1.71h0.328v-3.636
	c-2.033,0.086-4.043,0.172-6.08,0.172c-2.034,0-4.045-0.086-6.08-0.172V141.272z M127.342,138.533c0.702,0,1.403-0.02,2.151-0.02
	c2.198,0,3.625,0.813,3.625,2.695c0,2.355-2.011,2.677-4.185,2.677h-1.592V138.533z M122.828,151.374
	c1.124-0.086,2.479-0.171,3.672-0.171c0.819,0,2.386,0.085,3.392,0.171v-0.298l-1.871-0.579c-0.608-0.171-0.679-0.664-0.679-3.446
	v-2.459h1.801c1.45,1.731,3.531,4.472,5.028,6.782c0.585-0.041,1.169-0.086,1.73-0.086c0.538,0,1.1,0.045,1.637,0.086v-0.298
	c-1.31-0.215-1.426-0.364-2.782-2.229l-3.228-4.405c2.152-0.321,3.836-1.349,3.836-3.51c0-2.14-2.012-3.295-5.099-3.295
	c-1.66,0-2.994,0.172-4.21,0.172c-1.263,0-2.362-0.086-3.228-0.172v0.301l1.965,0.596c0.514,0.152,0.585,0.302,0.585,2.313v7.748
	c0,1.646-0.094,1.732-0.749,1.925l-1.801,0.558V151.374z M119.854,137.636c-0.936,0.086-1.848,0.172-2.736,0.172
	c-1.029,0-2.036-0.086-3.04-0.172v0.301l1.286,0.362c0.631,0.192,0.981,0.364,1.028,0.748c0.188,1.475,0.211,4.879,0.211,7.51
	c0,2.57-1.474,3.961-3.93,3.961c-3.718,0-4.396-1.798-4.396-4.538c0-3.295,0-5.135,0.07-6.396c0.046-0.749,0.233-0.834,1.52-1.284
	l1.076-0.362v-0.301c-1.239,0.086-2.454,0.172-3.694,0.172c-1.1,0-1.772-0.086-2.92-0.172v0.301l1.259,0.596
	c0.655,0.236,0.725,0.664,0.725,2.463v6.014c0,3.273,2.362,4.622,5.754,4.622c3.484,0,5.706-1.54,5.753-5.692
	c0.047-3.812,0-5.564,0.047-6.761c0.023-0.452,0.351-0.646,0.959-0.879l1.029-0.362V137.636z M262.222,105.466h0.55l1.179-3.101
	c0.552-1.315,0.943-1.467,6.84-1.467v16.88c0,1.935-0.078,2.942-0.313,3.486c-0.196,0.5-1.062,0.966-4.05,1.935v0.54
	c1.848-0.154,3.577-0.309,6.015-0.309s4.167,0.154,6.015,0.309v-0.54c-2.987-0.969-3.813-1.435-4.049-1.935
	c-0.235-0.544-0.315-1.552-0.315-3.486v-16.88c5.897,0,6.291,0.151,6.842,1.467l1.179,3.101h0.551v-6.583
	c-3.421,0.154-6.802,0.311-10.222,0.311s-6.8-0.156-10.22-0.311V105.466z M251.276,113.983h-8.844l4.521-10.259L251.276,113.983z
	 M234.02,123.74c1.454-0.154,2.909-0.309,4.362-0.309c1.574,0,3.105,0.154,4.64,0.309v-0.54l-3.381-1.202
	c0.551-2.169,1.18-4.45,2.241-6.429c1.652-0.037,3.262-0.075,4.914-0.075c1.65,0,3.341,0.038,4.992,0.075
	c0.55,1.166,1.808,4.806,2.28,6.429c-1.18,0.468-2.869,0.969-3.853,1.202v0.54c1.77-0.154,3.499-0.309,5.268-0.309
	c2.082,0,4.127,0.154,6.211,0.309v-0.54l-3.303-1.124c-3.341-7.858-6.879-15.914-10.023-23.966h-0.865
	c-2.83,6.969-7.076,15.873-10.495,23.812c-0.944,0.503-2.045,0.928-2.988,1.278V123.74z M253.636,94.78
	c0-0.89-0.943-1.78-1.927-1.78c-0.904,0-1.848,0.929-1.848,1.78c0,1.008,0.905,1.936,1.848,1.936
	C252.732,96.715,253.636,95.825,253.636,94.78z M245.852,94.78c0-0.89-0.943-1.78-1.926-1.78c-0.944,0-1.846,0.929-1.846,1.78
	c0,1.008,0.862,1.936,1.846,1.936C244.948,96.715,245.852,95.825,245.852,94.78z M212.345,105.466h0.551l1.178-3.101
	c0.552-1.315,0.944-1.467,6.841-1.467v16.88c0,1.935-0.079,2.942-0.314,3.486c-0.195,0.5-1.061,0.966-4.048,1.935v0.54
	c1.846-0.154,3.576-0.309,6.013-0.309c2.438,0,4.167,0.154,6.016,0.309v-0.54c-2.987-0.969-3.813-1.435-4.048-1.935
	c-0.238-0.544-0.316-1.552-0.316-3.486v-16.88c5.896,0,6.29,0.151,6.84,1.467l1.181,3.101h0.549v-6.583
	c-3.42,0.154-6.801,0.311-10.221,0.311c-3.419,0-6.8-0.156-10.22-0.311V105.466z M195.071,123.74
	c1.769-0.154,4.05-0.309,6.014-0.309c1.73,0,4.011,0.154,5.857,0.309v-0.54l-3.027-1.008c-0.982-0.349-1.1-0.502-1.14-3.485
	c-0.039-2.323-0.119-4.685-0.119-7.007c0-2.321,0.08-4.687,0.119-7.007c0.079-3.643,0.119-3.911,0.865-4.182l3.302-1.086v-0.542
	c-1.965,0.154-3.891,0.311-5.857,0.311c-2.2,0-4.127-0.156-6.014-0.311v0.542l3.302,1.086c0.748,0.271,0.787,0.539,0.866,4.182
	c0.038,2.32,0.115,4.686,0.115,7.007c0,2.322-0.077,4.684-0.115,7.007c-0.04,2.983-0.158,3.137-1.142,3.485l-3.026,1.008V123.74z
	 M171.016,123.122c2.24,0.852,3.931,1.084,5.818,1.084c7.744,0,10.3-3.872,10.3-7.241c0-8.015-12.306-6.463-12.306-12.543
	c0-2.596,2.28-4.491,4.757-4.491c1.338,0,2.635,0.231,3.971,0.734l1.534,4.299h0.432l0.235-5.306
	c-1.65-0.737-4.166-1.239-5.817-1.239c-4.246,0-8.648,2.283-8.648,6.968c0,7.281,12.305,6.817,12.305,12.314
	c0,3.6-2.87,4.994-6.015,4.994c-0.983,0-2.831-0.229-4.01-0.891l-1.336-4.996h-0.551L171.016,123.122z M147.834,100.511
	c1.181,0,2.359-0.041,3.617-0.041c3.696,0,6.094,1.473,6.094,4.879c0,4.26-3.38,4.84-7.036,4.84h-2.675V100.511z M140.249,123.74
	c1.888-0.154,4.167-0.309,6.172-0.309c1.374,0,4.008,0.154,5.699,0.309v-0.54l-3.145-1.046c-1.022-0.311-1.142-1.201-1.142-6.232
	v-4.454h3.029c2.437,3.138,5.934,8.093,8.45,12.272c0.982-0.078,1.966-0.154,2.909-0.154c0.904,0,1.848,0.076,2.752,0.154v-0.54
	c-2.202-0.39-2.398-0.658-4.679-4.027l-5.424-7.976c3.616-0.583,6.447-2.439,6.447-6.351c0-3.87-3.381-5.963-8.571-5.963
	c-2.79,0-5.03,0.311-7.075,0.311c-2.121,0-3.97-0.156-5.424-0.311v0.542l3.303,1.086c0.864,0.271,0.98,0.539,0.98,4.182v14.014
	c0,2.983-0.155,3.137-1.257,3.485l-3.026,1.008V123.74z M115.705,118.707c0,2.983-0.158,3.137-1.259,3.485l-3.026,1.008v0.54
	c2.83-0.154,6.604-0.309,10.063-0.309c2.202,0,8.256,0.154,10.3,0.309v-2.94c0-1.123,0.157-2.286,0.236-3.408h-0.551
	c-0.707,2.285-1.14,3.521-1.611,4.105c-0.394,0.464-0.983,0.501-5.189,0.501c-1.769,0-3.616-0.115-5.464-0.154
	c-0.079-1.627-0.196-3.406-0.196-5.187v-5.266h4.088c4.757,0,5.189,0.076,5.543,0.928l1.021,2.942h0.552
	c-0.04-1.627-0.08-3.096-0.08-4.685c0-1.432,0.04-2.903,0.08-4.376h-0.552l-1.021,2.749c-0.354,0.852-0.786,0.932-5.543,0.932
	h-4.088v-4.763c0-1.629,0.117-3.061,0.196-4.417c1.454-0.037,3.263-0.076,5.542-0.076c4.521,0,4.836,0,5.229,1.084l1.022,2.905h0.55
	c-0.039-0.891-0.117-2.208-0.117-2.789c0-0.58,0.078-1.976,0.118-2.942c-3.46,0.154-7.155,0.311-10.89,0.311
	c-2.987,0-5.975-0.156-9.237-0.311v0.542l3.302,1.086c0.865,0.271,0.983,0.539,0.983,4.182V118.707z M164.695,65.728
	c0,3.443-0.182,3.622-1.432,4.025l-3.448,1.165v0.624c3.222-0.178,7.518-0.357,11.456-0.357c2.505,0,9.394,0.18,11.722,0.357v-3.398
	c0-1.298,0.179-2.64,0.27-3.938h-0.627c-0.807,2.64-1.295,4.069-1.835,4.741c-0.448,0.536-1.118,0.581-5.905,0.581
	c-2.014,0-4.114-0.133-6.22-0.179c-0.088-1.876-0.221-3.937-0.221-5.994v-6.084h4.65c5.411,0,5.908,0.088,6.31,1.074l1.163,3.399
	h0.627c-0.044-1.88-0.091-3.58-0.091-5.414c0-1.654,0.047-3.354,0.091-5.057h-0.627l-1.163,3.178
	c-0.401,0.984-0.898,1.075-6.31,1.075h-4.65v-5.505c0-1.88,0.133-3.534,0.221-5.102c1.656-0.042,3.715-0.088,6.307-0.088
	c5.148,0,5.506,0,5.954,1.252l1.161,3.356h0.628c-0.045-1.029-0.133-2.55-0.133-3.222c0-0.671,0.088-2.282,0.133-3.4
	c-3.938,0.179-8.142,0.356-12.394,0.356c-3.399,0-6.799-0.178-10.517-0.356v0.626l3.761,1.254c0.984,0.312,1.119,0.625,1.119,4.829
	V65.728z M124.537,71.542c2.147-0.178,4.741-0.357,7.024-0.357c1.567,0,4.563,0.18,6.488,0.357v-0.624l-3.578-1.21
	c-1.167-0.358-1.299-1.386-1.299-7.201v-5.235h13.243v5.235c0,5.815-0.138,6.843-1.299,7.201l-3.579,1.21v0.624
	c1.925-0.178,4.922-0.357,6.487-0.357c2.279,0,4.878,0.18,7.022,0.357v-0.624l-3.443-1.165c-1.253-0.403-1.432-0.582-1.432-4.025
	V49.529c0-4.204,0.132-4.518,1.12-4.829l3.755-1.254V42.82c-2.28,0.179-4.472,0.356-6.574,0.356c-2.284,0-4.566-0.178-6.936-0.356
	v0.626l3.356,1.12c1.341,0.445,1.521,0.759,1.521,2.952v8.01h-13.243v-8.01c0-2.193,0.177-2.507,1.519-2.952l3.358-1.12V42.82
	c-2.372,0.179-4.655,0.356-6.937,0.356c-2.104,0-4.295-0.178-6.576-0.356v0.626l3.757,1.254c0.984,0.312,1.12,0.625,1.12,4.829
	v16.199c0,3.443-0.179,3.622-1.435,4.025l-3.442,1.165V71.542z M96.454,50.425h0.623l1.344-3.579c0.627-1.521,1.074-1.7,7.785-1.7
	v19.509c0,2.235-0.091,3.398-0.356,4.025c-0.226,0.582-1.21,1.116-4.609,2.238v0.624c2.101-0.178,4.069-0.357,6.844-0.357
	s4.743,0.18,6.846,0.357v-0.624c-3.397-1.122-4.339-1.656-4.607-2.238c-0.27-0.627-0.357-1.79-0.357-4.025V45.146
	c6.71,0,7.157,0.179,7.786,1.7l1.34,3.579h0.625V42.82c-3.891,0.179-7.737,0.356-11.632,0.356c-3.891,0-7.736-0.178-11.63-0.356
	V50.425z M71.105,65.728c0,3.443-0.18,3.622-1.432,4.025l-3.445,1.165v0.624c3.221-0.178,7.515-0.357,11.452-0.357
	c2.507,0,9.396,0.18,11.722,0.357v-3.398c0-1.298,0.179-2.64,0.268-3.938h-0.625c-0.804,2.64-1.297,4.069-1.833,4.741
	c-0.45,0.536-1.118,0.581-5.906,0.581c-2.013,0-4.114-0.133-6.219-0.179c-0.091-1.876-0.224-3.937-0.224-5.994v-6.084h4.653
	c5.412,0,5.901,0.088,6.306,1.074l1.165,3.399h0.627c-0.048-1.88-0.092-3.58-0.092-5.414c0-1.654,0.044-3.354,0.092-5.057h-0.627
	l-1.165,3.178c-0.404,0.984-0.894,1.075-6.306,1.075h-4.653v-5.505c0-1.88,0.133-3.534,0.224-5.102
	c1.658-0.042,3.712-0.088,6.307-0.088c5.148,0,5.504,0,5.952,1.252l1.163,3.356h0.626C89.09,48.413,89,46.892,89,46.22
	c0-0.671,0.09-2.282,0.135-3.4c-3.938,0.179-8.142,0.356-12.39,0.356c-3.407,0-6.807-0.178-10.517-0.356v0.626l3.758,1.254
	c0.983,0.312,1.119,0.625,1.119,4.829V65.728z M47.426,72.08c8.905,0,14.228-7.021,14.228-15.882
	c0-8.142-5.277-13.914-13.511-13.914c-9.036,0-14.628,6.263-14.628,15.166C33.515,64.699,38.122,72.08,47.426,72.08z M47.874,70.604
	c-6.529,0-9.797-6.087-9.797-15.3c0-6.355,3.354-11.544,9.573-11.544c7.383,0,9.442,7.112,9.442,14.586
	C57.093,64.43,54.675,70.604,47.874,70.604z M21.027,67.917c0,0.316-0.043,0.987-0.09,1.657c-1.568,0.537-3.266,0.763-5.146,0.763
	c-6.663,0-11.229-5.326-11.229-13.021c0-8.948,5.322-13.287,11.634-13.287c1.743,0,4.429,0.402,4.877,0.982
	c0.669,0.852,1.521,3.313,2.146,5.235h0.627c-0.047-1.298-0.09-2.594-0.09-3.893c0-1.117,0.043-2.281,0.09-3.445
	c-1.924-0.403-3.893-0.625-6.354-0.625C9.572,42.284,0,47.472,0,57.718C0,66.129,6.264,72.08,16.463,72.08
	c2.997,0,6.71-0.715,8.412-1.252c-0.044-0.807-0.091-1.565-0.091-2.014v-6.891c0-0.939,0.136-1.387,0.939-1.789l2.818-1.341v-0.628
	c-1.966,0.091-3.935,0.358-5.948,0.358c-2.149,0-4.297-0.268-6.445-0.358v0.628l2.685,1.028c2.014,0.762,2.194,1.027,2.194,1.746
	V67.917z M88.862,151.374c1.216-0.086,2.338-0.171,3.484-0.171c1.38,0,2.361,0.085,3.625,0.171v-0.298l-1.801-0.558
	c-0.701-0.192-0.796-0.278-0.796-1.925v-4.045h2.06c2.829,0,3.087,0.043,3.296,0.512l0.608,1.627h0.327
	c-0.022-0.897-0.046-1.712-0.046-2.589c0-0.793,0.023-1.604,0.046-2.419h-0.327l-0.608,1.519c-0.209,0.474-0.467,0.517-3.296,0.517
	h-2.06v-2.399c0-0.855,0.07-1.71,0.117-2.565h4.889c0.654,0,0.936,0,1.192,0.641l0.561,1.563h0.328
	c-0.023-0.598-0.046-1.22-0.046-1.817c0-0.493,0.022-1.008,0.046-1.499c-1.895,0.086-3.812,0.172-5.73,0.172
	c-1.917,0-3.812-0.086-5.869-0.172v0.301l1.964,0.596c0.515,0.152,0.585,0.302,0.585,2.313v7.748c0,1.646-0.094,1.732-0.748,1.925
	l-1.801,0.558V151.374z M69.937,151.374c1.053-0.086,2.409-0.171,3.578-0.171c1.029,0,2.386,0.085,3.484,0.171v-0.298l-1.8-0.558
	c-0.585-0.192-0.655-0.278-0.679-1.925c-0.023-1.286-0.07-2.592-0.07-3.876c0-1.282,0.047-2.59,0.07-3.872
	c0.047-2.011,0.07-2.16,0.515-2.313l1.964-0.596v-0.301c-1.169,0.086-2.314,0.172-3.484,0.172c-1.309,0-2.455-0.086-3.578-0.172
	v0.301l1.965,0.596c0.444,0.152,0.468,0.302,0.515,2.313c0.023,1.282,0.07,2.59,0.07,3.872c0,1.284-0.047,2.59-0.07,3.876
	c-0.023,1.646-0.094,1.732-0.679,1.925l-1.801,0.558V151.374z M79.596,151.374c1.006-0.086,2.011-0.171,3.04-0.171
	c1.146,0,2.315,0.085,3.438,0.171v-0.298c-0.585-0.131-1.217-0.364-1.45-0.472c-0.071-0.021-0.421-0.298-0.562-0.429l-6.875-6.697
	l5.542-4.431c0.912-0.727,1.918-0.963,2.549-1.11v-0.301c-0.865,0.086-1.729,0.172-2.596,0.172c-1.006,0-2.034-0.086-3.04-0.172
	v0.301c0.982,0.319,1.637,0.447,1.637,0.684c0,0.214-0.467,0.662-1.31,1.368l-4.935,4.109l5.894,5.865
	c0.211,0.212,0.397,0.343,0.397,0.512c0,0.15-0.421,0.258-1.73,0.601V151.374z M66.064,137.636
	c-1.076,0.086-2.128,0.172-3.181,0.172c-0.958,0-1.94-0.086-2.9-0.172v0.301l1.545,0.576c0.678,0.256,0.865,0.429,0.912,1.027
	c0.069,1.048,0.093,2.097,0.093,3.125v5.178l-6.665-8.091c-0.561-0.684-1.053-1.368-1.497-2.116
	c-0.701,0.086-1.403,0.172-2.104,0.172c-0.748,0-1.497-0.086-2.245-0.172v0.301c0.748,0.212,1.473,0.447,2.198,0.748l0.304,0.427
	v4.237c0,2.738-0.163,5.928-0.257,6.614c-0.023,0.192-0.233,0.384-0.562,0.49l-1.777,0.622v0.298
	c1.005-0.086,1.987-0.171,2.993-0.171c1.029,0,2.082,0.085,3.11,0.171v-0.298l-1.543-0.45c-0.678-0.193-0.842-0.362-0.912-0.705
	c-0.07-0.407-0.116-4.624-0.116-7.449v-2.396l4.794,5.842c1.59,1.969,3.204,3.915,4.701,5.949h0.561
	c-0.046-2.439-0.046-4.902-0.046-5.779c0-1.241,0.187-5.027,0.256-6.762c0.023-0.384,0.258-0.6,0.772-0.77l1.566-0.515V137.636z
	 M41.953,145.98H36.69l2.69-5.67L41.953,145.98z M31.687,151.374c0.865-0.086,1.731-0.171,2.596-0.171
	c0.936,0,1.848,0.085,2.761,0.171v-0.298l-2.013-0.666c0.328-1.197,0.702-2.462,1.334-3.551c0.981-0.021,1.941-0.043,2.923-0.043
	c0.982,0,1.988,0.021,2.971,0.043c0.327,0.641,1.075,2.654,1.356,3.551c-0.702,0.259-1.708,0.535-2.293,0.666v0.298
	c1.053-0.086,2.082-0.171,3.135-0.171c1.239,0,2.455,0.085,3.694,0.171v-0.298l-1.964-0.622c-1.988-4.343-4.093-8.795-5.964-13.248
	h-0.515c-1.684,3.854-4.209,8.774-6.244,13.163c-0.561,0.278-1.216,0.514-1.777,0.707V151.374z M20.366,138.533
	c0.701,0,1.403-0.02,2.151-0.02c2.198,0,3.625,0.813,3.625,2.695c0,2.355-2.011,2.677-4.187,2.677h-1.59V138.533z M15.853,151.374
	c1.122-0.086,2.479-0.171,3.672-0.171c0.818,0,2.385,0.085,3.391,0.171v-0.298l-1.871-0.579c-0.607-0.171-0.678-0.664-0.678-3.446
	v-2.459h1.801c1.45,1.731,3.531,4.472,5.028,6.782c0.584-0.041,1.169-0.086,1.73-0.086c0.537,0,1.099,0.045,1.637,0.086v-0.298
	c-1.31-0.215-1.427-0.364-2.783-2.229l-3.228-4.405c2.151-0.321,3.835-1.349,3.835-3.51c0-2.14-2.011-3.295-5.098-3.295
	c-1.66,0-2.993,0.172-4.21,0.172c-1.263,0-2.361-0.086-3.227-0.172v0.301l1.964,0.596c0.515,0.152,0.584,0.302,0.584,2.313v7.748
	c0,1.646-0.093,1.732-0.748,1.925l-1.8,0.558V151.374z M0.762,151.374c1.217-0.086,2.339-0.171,3.485-0.171
	c1.38,0,2.361,0.085,3.625,0.171v-0.298l-1.801-0.558c-0.702-0.192-0.796-0.278-0.796-1.925v-4.045h2.059
	c2.83,0,3.087,0.043,3.298,0.512l0.607,1.627h0.327c-0.023-0.897-0.047-1.712-0.047-2.589c0-0.793,0.023-1.604,0.047-2.419h-0.327
	l-0.607,1.519c-0.211,0.474-0.468,0.517-3.298,0.517H5.275v-2.399c0-0.855,0.07-1.71,0.117-2.565h4.889c0.654,0,0.935,0,1.191,0.641
	l0.562,1.563h0.327c-0.022-0.598-0.046-1.22-0.046-1.817c0-0.493,0.023-1.008,0.046-1.499c-1.894,0.086-3.812,0.172-5.729,0.172
	c-1.917,0-3.812-0.086-5.87-0.172v0.301l1.965,0.596c0.514,0.152,0.584,0.302,0.584,2.313v7.748c0,1.646-0.093,1.732-0.747,1.925
	l-1.802,0.558V151.374z M82.562,99.425l1.102,0.386c1.258,0.427,1.533,0.544,2.161,1.976c2.477,5.616,6.487,15.373,9.042,22.419
	h0.904c3.616-9.679,6.723-17.308,9.198-22.611c0.63-1.315,1.18-1.744,2.87-2.169v-0.542c-1.179,0.154-2.359,0.311-3.578,0.311
	c-1.493,0-2.986-0.156-4.48-0.311v0.542c1.729,0.544,2.948,0.969,2.948,1.394c0,0.427-0.158,0.854-0.393,1.547
	c-1.376,4.299-3.578,9.875-5.977,15.528c-1.847-4.104-6.879-16.146-6.879-16.958c0-0.425,0.354-0.62,2.162-1.125l1.376-0.386v-0.542
	c-1.651,0.154-3.342,0.311-4.993,0.311c-1.808,0-3.655-0.156-5.464-0.311V99.425z M66.076,123.74
	c1.769-0.154,4.049-0.309,6.014-0.309c1.73,0,4.011,0.154,5.857,0.309v-0.54l-3.026-1.008c-0.982-0.349-1.101-0.502-1.14-3.485
	c-0.04-2.323-0.118-4.685-0.118-7.007c0-2.321,0.078-4.687,0.118-7.007c0.078-3.643,0.117-3.911,0.864-4.182l3.302-1.086v-0.542
	c-1.965,0.154-3.892,0.311-5.857,0.311c-2.201,0-4.127-0.156-6.014-0.311v0.542l3.302,1.086c0.747,0.271,0.786,0.539,0.865,4.182
	c0.039,2.32,0.117,4.686,0.117,7.007c0,2.322-0.078,4.684-0.117,7.007c-0.04,2.983-0.157,3.137-1.141,3.485l-3.026,1.008V123.74z
	 M59.026,98.883c-1.809,0.154-3.577,0.311-5.346,0.311c-1.612,0-3.264-0.156-4.876-0.311v0.542l2.595,1.045
	c1.141,0.466,1.455,0.775,1.533,1.86c0.118,1.896,0.158,3.794,0.158,5.651v9.37l-0.079,0.078l-11.125-14.714
	c-0.943-1.237-1.77-2.479-2.516-3.833c-1.18,0.154-2.358,0.311-3.538,0.311c-1.258,0-2.516-0.156-3.773-0.311v0.542
	c1.258,0.386,2.477,0.813,3.694,1.356l0.512,0.773v7.666c0,4.955-0.275,10.725-0.433,11.964c-0.039,0.349-0.394,0.697-0.943,0.891
	l-2.988,1.124v0.54c1.691-0.154,3.342-0.309,5.032-0.309c1.729,0,3.499,0.154,5.229,0.309v-0.54l-2.595-0.814
	c-1.141-0.349-1.416-0.659-1.533-1.278c-0.117-0.732-0.196-8.363-0.196-13.473v-4.335h0.079l7.979,10.568
	c2.673,3.563,5.386,7.085,7.901,10.765h0.943c-0.078-4.416-0.078-8.866-0.078-10.456c0-2.245,0.313-9.098,0.432-12.233
	c0.04-0.697,0.433-1.085,1.298-1.396l2.634-0.927V98.883z M27.643,98.883c-1.572,0.154-3.106,0.311-4.6,0.311
	c-1.73,0-3.421-0.156-5.11-0.311v0.542l2.161,0.661c1.063,0.345,1.651,0.656,1.73,1.352c0.313,2.674,0.354,8.831,0.354,13.592
	c0,4.646-2.477,7.162-6.604,7.162c-6.251,0-7.391-3.252-7.391-8.209c0-5.962,0-9.29,0.117-11.576
	c0.079-1.356,0.393-1.508,2.556-2.32l1.808-0.661v-0.542c-2.083,0.154-4.126,0.311-6.21,0.311c-1.848,0-3.695-0.156-5.622-0.311
	v0.542l2.83,1.086c1.101,0.425,1.22,1.198,1.22,4.452v10.881c0,5.921,3.969,8.361,9.67,8.361c5.856,0,9.592-2.789,9.67-10.299
	c0.079-6.894,0-10.065,0.079-12.234c0.039-0.814,0.589-1.161,1.611-1.586l1.73-0.661V98.883z M221.584,52.958
	c0.016,0.053,0.294,1.442,0.294,1.668c0,0.227,0.492,1.101,0.741,1.609c0.554,1.119,1.285,2.356,2.076,3.341
	c0.929,1.165,2.772,2.648,4.006,3.452c1.63,1.052,3.754,1.61,5.44,1.622c0.271,0,0.601,0.069,0.986,0.188
	c0.134,0.168,0.234,0.331,0.234,0.559c0,1.323-4.208,6.47-5.656,6.47c-0.78,0-1.791-0.895-2.475-1.339
	c-2.125-1.381-4.317-3.796-5.597-5.924c-0.679-1.142-2.201-3.654-2.201-4.865c0-0.226,0.092-0.814,0.092-1.04
	c0-0.227,0.813-2.941,0.813-3.167c0-0.228,0.905-2.444,0.905-2.671L221.584,52.958z M215.271,66.256c0.543,0,1.543,1.854,1.77,2.217
	c0.181,0.292,1.969,2.873,2.444,3.688c1.007,1.708,3.841,5.328,3.839,5.555c0,0,0.175,0.464-0.003,0.635
	c-0.083,0.08-0.04,0.123-0.267,0.123c-0.226,0-0.873,0.051-1.427-0.493c-0.447-0.439-6.81-10.108-6.81-11.182
	C214.817,66.573,215.045,66.256,215.271,66.256z M220.442,65.453c0.142-0.08,0.416-0.003,0.416-0.003
	c1.938,2.543,3.765,5.506,6.48,6.807c0.521,0.248,1.155,0.519,1.551,0.915c0.543,0.553,1.856,2.678,1.856,3.491
	c0,0.794-0.881,0.816-1.131,0.816c-0.486,0-1.876-0.685-2.282-0.889c-4.107-2.126-5.93-6.984-6.994-10.466
	C220.339,66.125,220.21,65.582,220.442,65.453z M207.608,37.943c0.251-0.007,0.564-0.028,0.861,0.111
	c0.354,0.489,0.003,1.473,0.718,1.933c0.173,0.031,0.346,0.121,0.572,0.121c1.018,0,1.899-1.629,2.037-1.629
	c0.226,0,0.644,0.272,1.035,0.379c0,0,0.071,0.173,0,0.47c-0.064,0.264-1.956,2.602-2.283,2.824
	c-0.146,0.099-0.444,0.249-0.727,0.362c-0.34,0.147-0.832,0.219-1.059,0.219c-1.086,0-1.81-1.493-1.81-2.173
	C206.954,39.78,207.264,38.687,207.608,37.943z M236.271,68.709c0.695,0.192,0.86,1.605,0.86,2.081c0,0.781-0.656,3.302-1.81,3.302
	c-0.228,0-0.543-0.225-0.769-0.225c-0.544,0-1.676,1.132-1.676,1.493c0,0.702,1.289,0.817,2.222,0.947
	c0.483,0.067,1.25,0.005,1.25,0.005c0.913-0.716,0.638-2.121,1.555-2.961c0.179-0.082,0.354-0.121,0.709-0.204h0.305
	c0.034,0.032,1.11,1.693,1.11,2.123c0,1.969-4.717,3.031-5.565,3.031c-2.139,0-3.213-3.552-3.213-4.706
	c0-1.029,0.463-1.719,1.402-1.719c0.226,0,1.72,0.542,1.945,0.542c0.85,0,1.087-0.928,1.087-1.403c0-0.226-0.194-0.95-0.181-1.176
	C235.537,69.235,235.87,68.707,236.271,68.709z M250.789,67.087c0.272,0.009,0.212,0.565,0.212,0.748
	c0.029,1.097,0.029,0.519-0.025,1.265c-0.019,1.24-0.862,2.8-1.394,3.716c-0.51,0.883-3.445,5.396-5.345,5.396
	c-1.075,0-2.489-1.675-2.489-2.398c0-0.532,0.746-0.768,1.21-0.893c0.464-0.123,0.932-0.27,1.352-0.449
	c2.33-1.053,4.031-3.388,5.286-5.471c0.289-0.48,0.534-1.646,0.784-1.791C250.523,67.128,250.6,67.081,250.789,67.087z
	 M249.673,55.405c0.281,0.1,0.378,0.119,0.457,0.488c0.4,1.88,0.85,5.621,0.85,5.847c0,1.042-0.9,2.909-1.398,3.746
	c-0.668,1.108-1.939,2.888-3.049,3.719c-0.211,0.158-3.63,2.46-5.011,2.582c-0.979,0.087-2.587-1.495-2.998-2.098
	c-0.577-0.846-1.001-1.75-1.42-2.542c-0.295-0.555-0.785-1.424-0.785-1.651c0-0.339,0.389-0.621,0.581-0.655
	c0.09-0.011,2.217-0.358,2.976-0.687c3.45-1.493,7.984-4.136,9.229-8.084C249.183,55.81,249.359,55.593,249.673,55.405z
	 M239.304,45.403c0,0.725-0.565,1.313-1.222,1.313c-0.226,0-0.233,0.001-0.317-0.098c-0.104-0.123,0.008-0.412,0.008-0.412
	c-0.007-0.226,0.358-0.622,0.355-0.849c-0.005-0.412-0.09-0.674-0.163-1.529C238.937,44.208,239.304,44.487,239.304,45.403z
	 M242.608,33.502c0.52,0,0.848,0.498,0.86,0.859c0.011,0.359-0.499,0.77-0.725,0.77c-0.419,0-0.714-0.538-0.725-0.905
	C242.014,34.045,242.28,33.502,242.608,33.502z M226.361,33.412c0.611,0,0.635,0.554,0.635,0.725c0,0.418-0.316,0.904-0.679,0.904
	c-0.656,0-0.77-0.52-0.77-0.814C225.548,33.683,225.831,33.412,226.361,33.412z M243.513,30.515c0.228,0,0.436,0.171,0.729,0.204
	c0.77,0.091,2.212,0.837,2.212,1.832c0,0.227-0.096,0.654-0.31,1.041c-0.401-0.375-0.85-0.915-1.38-1.359h-0.242
	c-0.072,0.079-0.149-0.043-0.149,0.184s0.086,0.296,0.181,0.505c-0.104,0.115-0.091,0.219-0.316,0.219
	c-0.136,0-1.086-0.452-1.629-0.452c-0.951,0-2.173,0.724-2.444,0.724c-0.227,0-0.407-0.271-0.407-0.497
	c0-1.087,1.721-0.815,1.721-1.63c0-0.419,1.096-0.589,1.131-0.589C242.834,30.696,243.287,30.515,243.513,30.515z M224.232,29.882
	c0.747-0.059,1.08-0.038,1.365,0c0.956,0.227,2.847,1.029,2.847,2.263c0,0.226-0.045,0.451-0.272,0.451
	c-0.226,0-0.825-0.633-1.052-0.634h-0.606c-0.074,0.078-0.061-0.044-0.061,0.183c0,0.226,0.181,0.226,0.181,0.451
	c0,0.228-0.091,0.228-0.106,0.352c-0.964-0.125-1.467,0.111-2.591,0.363c-0.018-0.307-0.018-0.578-0.015-0.832
	c-0.08-0.076-0.049-0.063-0.274-0.063c-0.725,0-1.267,1.356-1.991,1.356c-0.543,0-0.814-0.497-0.814-0.813
	c0-0.974,1.158-2.35,2.107-2.779C223.29,30.033,223.774,29.973,224.232,29.882z M225.413,28.795c0.729,0.091,0.813,0,0.907,0
	c0.727,0.091,1.624,0.141,2.28,0.48c1.131,0.577,2.818,1.63,3.781,2.794c0.158,0.192,0.496,1.591,0.496,2.021
	c0,0.225-0.634,2.741-0.633,3.483c0.001,0.535,0.453,2.625,0.453,2.852c0,0.463,0.059,1.236-0.39,1.852
	c-0.398-0.054-1.783-2.271-1.783-3.074c0-1.188,1.087-1.38,1.087-2.986c0-0.294-0.057-0.543-0.362-0.543
	c-0.227,0-1.188,1.086-1.414,1.084c0,0-0.486,0.149-0.724-0.002c-0.102-0.064-0.216-0.221-0.216-0.221
	c0.38-0.625,1.086-1.473,1.086-1.993c0-0.361-0.956-1.074-1.212-1.041c-0.551,0.18-0.135,0.957-0.18,1.319
	c-0.112,0.813-1.188,1.939-2.002,1.939c-0.396,0-1.412-0.444-1.64-0.682c-0.95-1.007-0.487-1.151-0.487-2.034
	c0-0.227-0.092-0.135-0.078-0.284c-0.058,0.013-0.058-0.077-0.285-0.077c-0.599,0-1.176,0.951-1.176,1.313
	c0,0.69,0.45,1.563,1.443,1.791c-0.294,0.627-0.504,0.697-0.945,0.697c-1.709,0-1.505-2.263-2.262-2.263
	c-0.228,0-0.453,0.182-0.679,0.182c-0.228,0-0.664-0.418-0.867-0.587c-0.373-0.306-0.311-0.647-0.311-0.861
	C219.303,30.821,221.857,29.011,225.413,28.795z M254.329,27.438c0.904,0,2.353,1.268,2.353,2.172c0,0.249-0.256,0.588-0.403,0.6
	c-1.628,0.17-2.493,1.833-2.493,2.976c0,1.257,0.84,2.231,2.23,2.868c0.294,0.135,0.763,0.187,0.989,0.187s0.921-0.22,1.419-0.503
	c0.804-0.476,1.216-1.982,2.222-1.592c0.767,1.004,1.014,1.722,1.014,2.57c0,1.356-3.021,1.854-3.395,1.854
	c-1.426,0-3.462-0.875-4.719-2.369c-0.52-0.622-0.975-1.417-1.301-2.126c-0.369-0.801-0.632-1.806-0.632-2.383
	C251.613,30.673,252.768,27.438,254.329,27.438z M249.577,17.03c0.226,0,1.166,0.365,1.73,0.51c2.289,0.591,3.223,3.3,3.677,5.049
	c0.052,0.204,0.121,0.457,0.121,0.684s-0.009,0.492-0.108,0.872c0,0-0.035,0.217-0.262,0.217c-0.544,0-1.031-0.424-1.664-1.193
	c-0.791-0.973-1.201-2.23-1.937-3.261c-0.43-0.588-1.063-1.13-1.592-1.602c-0.161-0.145-0.71-0.496-0.735-0.823
	c-0.016-0.185,0.024-0.282,0.097-0.342C249.051,17.023,249.351,17.03,249.577,17.03z M230.48,13.319
	c2.443,0,3.869,1.448,6.109,1.448c0.226,0,3.846-0.362,4.072-0.362c1.471,0,3.607,1.883,3.857,3.66
	c0.045,0.351,0.125,0.82,0.125,1.047c0,0.226-0.453,2.76-0.453,2.986c0,2.342,2.624,3.915,2.624,5.974
	c0,0.589-0.298,1.606-0.758,1.989c-0.314-0.067-0.991-0.613-1.206-0.703c-0.701-0.329-2.107-0.652-2.335-0.652
	c-2.239,0-5.048,1.447-6.28,2.612c-0.611,0.576-0.732,2.331-0.732,2.998c0,1.618,0.814,3.112,0.814,4.662
	c0,0.226-0.275,3.183-0.307,3.262c0.034,0.169,0.035,0.444,0.058,0.724c-0.024,0.099-0.022-0.004-0.022,0.223
	s0.451,1.811,0.451,2.037c0,1.086-0.667,1.945-1.809,1.945c-0.544,0-1.177-0.452-1.177-0.995c0-0.577-0.454-1.5-0.793-1.704
	c-0.147-0.091-0.249-0.106-0.475-0.106s-1.016,0.988-1.581,1.358c-0.466-0.244-0.304-0.794-0.769-0.794
	c-0.634,0-0.638,0.736-0.638,0.794c0,0.791,1.019,1.81,1.855,1.81c0.228,0,1.456-0.566,1.682-0.566c0.679,0,1.066,1.238,1.18,1.352
	c0.203,0.215,0.533,0.348,0.759,0.348c0.228,0,0.771-0.605,0.996-0.605c0.759,0,1.179,0.159,2.1,0.336
	c0.378,0.072,0.787,0.117,1.098-0.411c0.194-0.333,0.166-0.363,0.352-0.607c0.226-0.194,0.355-0.35,0.627-0.45
	c0.282-0.113,1.119-1.193,1.119-1.567c0-1.843-1.357-1.267-1.357-3.292v-1.38c0-0.226-0.543-2.522-0.543-2.749
	c0-0.804,1.447-0.057,1.447-0.996c0-0.361-1.538-1.21-1.538-1.72c0-0.645,1.445-1.287,1.688-1.355
	c0.238,0.311,0.122,0.202,0.122,0.496c0,0.859,0.336,1.857,1.569,2.229c0.103,0.031,0.512,0.079,0.739,0.079
	c0.226,0,0.729-0.217,1.057-0.478c0.545-0.43,0.946-1.584,0.824-2.208c0,0-0.071-0.121,0.155-0.121c0.543,0,1.177,0.713,1.177,0.95
	c0,0.69-1.122,2.228-1.755,2.364c-0.634,0.136-1.26,0.212-1.871,0.467c-0.169,0.23,0,0.318,0,0.318
	c0.426,0.264,0.73,0.188,0.73,0.562c0,0.227-0.453,0.634-0.453,0.86c0,0.667,0.486,0.814,0.725,0.814
	c0.791,0,2.707-1.195,3.137-2.146c0.192-0.419,0.12-1.294,0.12-1.52c0-0.386,0.477-1.158,0.594-1.218
	c0.325-0.165,0.864,0.233,1,0.753c0.113,0.453,0.217,1.324,0.217,1.551c0,1.651-0.895,2.87-0.815,4.522
	c0.08,1.448-0.09,2.446-0.09,2.672c0,0.228-0.229,1.246-0.397,1.867c-0.068,0.25-3.302,6.46-4.546,6.46h-1.075
	c-0.227,0-0.246-0.16-0.371-0.285c-0.147-0.146-0.251-0.484-0.251-0.756s0.081-0.541,0.002-0.801
	c-0.09-0.283-0.421-0.783-0.647-0.783c-0.927,0-1.471,0.725-1.991,0.725c-0.509,0-1.424-1.087-2.353-1.087
	c-1.143,0-1.414,1.448-2.217,1.448c-0.984,0-1.086-1.538-2.354-1.538c-1.074,0-0.939,1.086-2.217,1.086
	c-0.228,0-1.036-0.595-1.262-0.595c-0.905,0-1.021,1.38-1.09,1.54c0.159,0.066,0.224,0.327,0.449,0.327
	c0.228,0,0.931-0.66,1.158-0.66c0.226,0,1.306,1.087,1.664,1.097c0.406,0.011,1.889-0.685,2.115-0.685s1.204,0.469,1.43,0.469
	c0.984,0,1.893-0.77,2.729-0.77c0.668,0,1.811,0.464,1.811,1.178c0,1.301-1.278,1.81-2.128,1.81c-0.226,0-2.669-0.633-2.896-0.633
	c-0.475,0-2.488,0.124-2.488,0.904c0,0.543,1.347,0.917,1.584,0.905c0.487-0.024,2.081-0.362,2.307-0.362
	c1.268,0,3.35,0.305,3.35,2.173c0,2.137-2.207,2.986-3.677,2.986h-3.53c-2.33-0.043-8.344-5.984-8.872-6.433
	c0,0-0.937-1.306-0.937-1.532s-0.482-1.024-0.697-1.567c-0.136-0.339-0.307-0.638-0.454-1.091c-0.085-0.256-0.868-2.728-1.027-3.993
	c-0.077-0.612,0.294-1.802-0.215-1.947c-0.471,0.165-0.83,1.357-1.452,1.357c-0.226,0-1.01-0.379-1.1-0.504
	c-0.158-0.204-0.393-0.607-0.461-0.98c-0.113-0.623-0.204-1.773-0.204-1.999c0-2.422,1.811-1.056,1.99-3.622l-0.271-8.552
	c0-2.048,1.529-3.654,2.105-5.939c0.103-0.43-0.023-1.256-0.023-1.482c0-4.909,2.485-8.496,7.463-8.847
	C228.023,13.625,230.254,13.319,230.48,13.319z M247.314,6.35c0.226,0,0.357,0.037,0.56,0.185c0.105,0.1,0.13,0.15,0.125,0.265
	c-0.005,0.104-0.027,0.178-0.125,0.237c-0.908,0.291-3.048,3.167-3.229,3.703c-0.186,0.544-0.362,1.313-0.362,1.539
	c0,0.372,0.17,0.769,0.498,0.769c0.226,0,0.997-0.338,1.439-0.429c0.814-0.17,2.226-0.386,2.451-0.386
	c1.449,0,3.848,1.335,3.848,2.715c0,0.227-0.008,0.538-0.202,0.808c-0.186,0.258-0.669-0.466-0.945-0.606
	c-0.407-0.207-1.161-0.382-1.387-0.382c-2.194,0-2.455,1.448-3.982,1.448c-0.679,0-1.156-0.04-1.868-0.922
	c-0.361-0.441-0.221-1.22-0.514-1.818c-0.147-0.306-0.617-0.534-0.844-0.806c-0.215-0.26-0.45-0.65-0.552-1.013
	c-0.068-0.26-0.133-0.613-0.043-0.988c0.319-1.34,0.717-2.146,1.753-2.927C244.242,7.511,246.601,6.35,247.314,6.35z M224.19,5.264
	c0.226,0,0.589,0.09,0.814,0.09s1.302,0.459,1.788,0.754c0.407,0.248,0.842,0.652,1.351,0.845c0.667,0.26,1.93,0.483,2.156,0.483
	c0.396,0,2.771-0.452,2.805-0.452c0.928,0,2.978,1.319,3.623,2.19c0.215,0.294,0.314,0.932,0.314,1.158
	c0,0.226-0.091,0.859-0.091,1.086c0,0.419-0.543,1.086-0.95,1.086c-0.497,0-1.085-1.927-1.244-2.097
	c-0.826-0.928-3.405-2.247-4.729-2.247c-0.112,0-0.949,0.056-0.949,0.542c0,1.019,2.624,1.427,2.624,2.444
	c0,0.328-0.543,0.543-0.724,0.543c-0.623,0-2.212-1.315-2.506-1.429c-0.883-0.351-1.893-0.563-2.792-0.744
	c-1.093-0.025-1.265,0.001-1.349,0c-1.556,0.406-2.829,1.819-3.839,3.24c-0.254,0.358-0.24,1.195-0.466,1.195
	c-0.227,0-1.131-0.271-1.358-0.271c-1.923,0-2.658,1.335-2.658,3.032c0,0.475-0.237,1.013-0.554,1.387
	c-0.237,0.282-0.906,0.649-1.131,0.649c-0.657,0-1.088-0.498-1.088-0.859c0-0.227,0.028-0.406,0.092-0.634
	c0.062-0.218,0.564-1.182,0.937-1.657c1.607-2.036,3.827-3.848,6.236-5.114c0.396-0.204,1.033-0.171,1.451-0.363
	c0.227-0.102,1.873-1.203,1.873-1.734c0-0.227-0.42-0.592-0.684-0.681c0,0-2.689,0.12-2.922,0.078
	c-0.041-0.036-0.104-0.122-0.104-0.349c0-0.43,0.572-0.667,0.827-0.862C221.646,6.033,223.466,5.264,224.19,5.264z M281.94,85.731
	H0.437l0.141-2.27l188.017,0.23c0.181-10.883,12.07-12.664,24.659-19.27l-0.104-0.283c-0.104-1.281-4.651-7.584-4.706-9.142
	c-0.103-2.967,7.183-6.855,7.24-7.603c-0.525-0.693-1.057-1.395-1.518-2.135c-0.524-0.026-2.514,2.089-5.089,2.089
	c-6.456,0-6.209-7.708-3.529-11.72c-3.695-7.43,0.621-7.308,0.361-9.232c-0.264-1.965-0.821-3.454-0.814-5.543
	c0,0-0.046-1.126,0.118-1.535c0.754-1.895,2.354-1.284,2.325-3.602c-0.049-3.941,3.319-5.566,6.272-7.135
	c0.561-0.298,0.072-3.665,3.164-5.372c3.608-1.991,8.427-3.67,11.969-0.934c3.192-1.576,7.336-2.043,10.856-2.262
	c2.615-0.163,3.781,1.002,5.219,2.935l0.353,0.587c2.549-1.711,4.193-1.044,5.201,1.546c4.232-3.141,11.484,4.932,8.825,10.681
	l0.152,0.331c3.379,0.871,3.79,7.774,4.01,10.394c0.18,2.111-1.053,3.718-1.175,5.521c-0.017,0.23,0.357,0.479,0.503,0.601
	c1.562,1.301,1.979,1.545,2.482,3.563c0.524,2.104,0.413,4.924-0.947,6.779c-2.805,3.833-4.864,2.342-8.497,1.319
	c-0.364,0.494-1.456,1.958-1.506,2.49c11.026,5.659,8.927,4.976,4.307,15.585c-0.117,0.269-0.955,2.153-0.958,2.29
	c-0.004,0.133,0.275,0.265,0.361,0.314c1.995,1.158,15.737,6.54,19.771,10.043c3.435,2.986,3.972,7.468,4.054,8.698L281.94,85.731z"
	/>
</svg>
